<svg width="48" height="38" viewBox="0 0 48 38" fill="none" xmlns="http://www.w3.org/2000/svg">
<mask id="mask0_5787_11515" style="mask-type:alpha" maskUnits="userSpaceOnUse" x="0" y="0" width="48" height="38">
<rect width="48" height="38" fill="#D9D9D9"/>
</mask>
<g mask="url(#mask0_5787_11515)">
<path d="M23.7563 15.455C36.5935 15.455 47 12.3058 47 8.4211C47 4.53639 36.5935 1.38721 23.7563 1.38721C10.9192 1.38721 0.512695 4.53639 0.512695 8.4211C0.512695 12.3058 10.9192 15.455 23.7563 15.455Z" stroke="#1F1F1F" stroke-width="0.978195" stroke-miterlimit="10"/>
<path d="M0.512695 8.4209C0.512695 12.2864 10.8848 15.4548 23.7563 15.4548C36.6278 15.4548 47 12.2864 47 8.4209V29.9662C47 33.8316 36.6278 37.0001 23.7563 37.0001C10.8848 37.0001 0.512695 33.8316 0.512695 29.9662V8.4209Z" stroke="#1F1F1F" stroke-width="0.978195" stroke-miterlimit="10"/>
</g>
</svg>
