<svg width="148" height="32" viewBox="0 0 148 32" fill="none" xmlns="http://www.w3.org/2000/svg">
<g clip-path="url(#clip0_6010_18888)">
<path d="M147.44 15.3942L143.93 15.6102C143.87 15.3102 143.741 15.0402 143.543 14.8002C143.345 14.5542 143.084 14.3592 142.76 14.2152C142.442 14.0652 142.061 13.9901 141.617 13.9901C141.023 13.9901 140.522 14.1162 140.114 14.3682C139.706 14.6142 139.502 14.9442 139.502 15.3582C139.502 15.6882 139.634 15.9672 139.898 16.1952C140.162 16.4232 140.615 16.6062 141.257 16.7442L143.759 17.2482C145.103 17.5242 146.105 17.9682 146.765 18.5802C147.425 19.1923 147.755 19.9963 147.755 20.9923C147.755 21.8983 147.488 22.6933 146.954 23.3773C146.426 24.0614 145.7 24.5954 144.776 24.9794C143.858 25.3574 142.799 25.5464 141.599 25.5464C139.769 25.5464 138.311 25.1654 137.225 24.4034C136.145 23.6353 135.512 22.5913 135.326 21.2713L139.097 21.0733C139.211 21.6313 139.487 22.0573 139.925 22.3513C140.363 22.6393 140.924 22.7833 141.608 22.7833C142.28 22.7833 142.82 22.6543 143.228 22.3963C143.642 22.1323 143.852 21.7933 143.858 21.3793C143.852 21.0313 143.705 20.7463 143.417 20.5243C143.129 20.2963 142.685 20.1223 142.085 20.0023L139.691 19.5253C138.341 19.2553 137.336 18.7872 136.676 18.1212C136.022 17.4552 135.695 16.6062 135.695 15.5742C135.695 14.6862 135.935 13.9211 136.415 13.2791C136.901 12.6371 137.582 12.1421 138.458 11.7941C139.34 11.4461 140.372 11.2721 141.554 11.2721C143.3 11.2721 144.674 11.6411 145.676 12.3791C146.684 13.1171 147.272 14.1222 147.44 15.3942Z" fill="#6B6B6B"/>
<path d="M133.209 15.3942L129.699 15.6102C129.639 15.3102 129.51 15.0402 129.312 14.8002C129.114 14.5542 128.853 14.3592 128.529 14.2152C128.211 14.0652 127.829 13.9901 127.385 13.9901C126.791 13.9901 126.29 14.1162 125.882 14.3682C125.474 14.6142 125.27 14.9442 125.27 15.3582C125.27 15.6882 125.402 15.9672 125.666 16.1952C125.93 16.4232 126.383 16.6062 127.025 16.7442L129.528 17.2482C130.872 17.5242 131.874 17.9682 132.534 18.5802C133.194 19.1923 133.524 19.9963 133.524 20.9923C133.524 21.8983 133.257 22.6933 132.723 23.3773C132.195 24.0614 131.469 24.5954 130.545 24.9794C129.627 25.3574 128.568 25.5464 127.367 25.5464C125.537 25.5464 124.079 25.1654 122.993 24.4034C121.913 23.6353 121.28 22.5913 121.094 21.2713L124.865 21.0733C124.979 21.6313 125.255 22.0573 125.693 22.3513C126.131 22.6393 126.692 22.7833 127.376 22.7833C128.049 22.7833 128.589 22.6543 128.997 22.3963C129.411 22.1323 129.621 21.7933 129.627 21.3793C129.621 21.0313 129.474 20.7463 129.186 20.5243C128.898 20.2963 128.454 20.1223 127.853 20.0023L125.459 19.5253C124.109 19.2553 123.104 18.7872 122.444 18.1212C121.79 17.4552 121.463 16.6062 121.463 15.5742C121.463 14.6862 121.703 13.9211 122.183 13.2791C122.669 12.6371 123.35 12.1421 124.226 11.7941C125.108 11.4461 126.14 11.2721 127.322 11.2721C129.069 11.2721 130.443 11.6411 131.445 12.3791C132.453 13.1171 133.041 14.1222 133.209 15.3942Z" fill="#6B6B6B"/>
<path d="M112.859 25.5464C111.437 25.5464 110.213 25.2584 109.187 24.6824C108.167 24.1004 107.381 23.2783 106.829 22.2163C106.277 21.1483 106.001 19.8853 106.001 18.4272C106.001 17.0052 106.277 15.7572 106.829 14.6832C107.381 13.6091 108.158 12.7721 109.16 12.1721C110.168 11.5721 111.35 11.2721 112.706 11.2721C113.618 11.2721 114.467 11.4191 115.253 11.7131C116.045 12.0011 116.735 12.4361 117.323 13.0181C117.917 13.6001 118.379 14.3322 118.709 15.2142C119.039 16.0902 119.204 17.1162 119.204 18.2922V19.3453H107.531V16.9692H115.595C115.595 16.4172 115.475 15.9282 115.235 15.5022C114.995 15.0762 114.662 14.7432 114.236 14.5032C113.816 14.2572 113.327 14.1342 112.769 14.1342C112.187 14.1342 111.671 14.2692 111.221 14.5392C110.777 14.8032 110.429 15.1602 110.177 15.6102C109.925 16.0542 109.796 16.5492 109.79 17.0952V19.3543C109.79 20.0383 109.916 20.6293 110.168 21.1273C110.426 21.6253 110.789 22.0093 111.257 22.2793C111.725 22.5493 112.28 22.6843 112.922 22.6843C113.348 22.6843 113.738 22.6243 114.092 22.5043C114.446 22.3843 114.749 22.2043 115.001 21.9643C115.253 21.7243 115.445 21.4303 115.577 21.0823L119.123 21.3163C118.943 22.1683 118.574 22.9123 118.016 23.5483C117.464 24.1784 116.75 24.6704 115.874 25.0244C115.004 25.3724 113.999 25.5464 112.859 25.5464Z" fill="#6B6B6B"/>
<path d="M94.6271 17.2842V25.2764H90.793V11.4521H94.4471V13.8911H94.6091C94.9151 13.0871 95.4281 12.4511 96.1481 11.9831C96.8682 11.5091 97.7412 11.2721 98.7672 11.2721C99.7272 11.2721 100.564 11.4821 101.278 11.9021C101.992 12.3221 102.547 12.9221 102.943 13.7021C103.339 14.4762 103.537 15.4002 103.537 16.4742V25.2764H99.7032V17.1582C99.7092 16.3122 99.4932 15.6522 99.0552 15.1782C98.6172 14.6982 98.0142 14.4582 97.2462 14.4582C96.7302 14.4582 96.2741 14.5692 95.8781 14.7912C95.4881 15.0132 95.1821 15.3372 94.9601 15.7632C94.7441 16.1832 94.6331 16.6902 94.6271 17.2842Z" fill="#6B6B6B"/>
<path d="M83.8876 25.2764V11.4521H87.7217V25.2764H83.8876ZM85.8136 9.67011C85.2436 9.67011 84.7546 9.48111 84.3466 9.1031C83.9446 8.71909 83.7436 8.26008 83.7436 7.72607C83.7436 7.19806 83.9446 6.74505 84.3466 6.36704C84.7546 5.98303 85.2436 5.79103 85.8136 5.79103C86.3836 5.79103 86.8697 5.98303 87.2717 6.36704C87.6797 6.74505 87.8837 7.19806 87.8837 7.72607C87.8837 8.26008 87.6797 8.71909 87.2717 9.1031C86.8697 9.48111 86.3836 9.67011 85.8136 9.67011Z" fill="#6B6B6B"/>
<path d="M81.1583 15.3942L77.6482 15.6102C77.5882 15.3102 77.4592 15.0402 77.2612 14.8002C77.0632 14.5542 76.8022 14.3592 76.4782 14.2152C76.1602 14.0652 75.7792 13.9901 75.3352 13.9901C74.7412 13.9901 74.2402 14.1162 73.8322 14.3682C73.4242 14.6142 73.2202 14.9442 73.2202 15.3582C73.2202 15.6882 73.3522 15.9672 73.6162 16.1952C73.8802 16.4232 74.3332 16.6062 74.9752 16.7442L77.4772 17.2482C78.8213 17.5242 79.8233 17.9682 80.4833 18.5802C81.1433 19.1923 81.4733 19.9963 81.4733 20.9923C81.4733 21.8983 81.2063 22.6933 80.6723 23.3773C80.1443 24.0614 79.4183 24.5954 78.4943 24.9794C77.5762 25.3574 76.5172 25.5464 75.3172 25.5464C73.4872 25.5464 72.0291 25.1654 70.9431 24.4034C69.8631 23.6353 69.2301 22.5913 69.0441 21.2713L72.8151 21.0733C72.9291 21.6313 73.2052 22.0573 73.6432 22.3513C74.0812 22.6393 74.6422 22.7833 75.3262 22.7833C75.9982 22.7833 76.5382 22.6543 76.9462 22.3963C77.3602 22.1323 77.5702 21.7933 77.5762 21.3793C77.5702 21.0313 77.4232 20.7463 77.1352 20.5243C76.8472 20.2963 76.4032 20.1223 75.8032 20.0023L73.4092 19.5253C72.0591 19.2553 71.0541 18.7872 70.3941 18.1212C69.7401 17.4552 69.4131 16.6062 69.4131 15.5742C69.4131 14.6862 69.6531 13.9211 70.1331 13.2791C70.6191 12.6371 71.3001 12.1421 72.1761 11.7941C73.0581 11.4461 74.0902 11.2721 75.2722 11.2721C77.0182 11.2721 78.3923 11.6411 79.3943 12.3791C80.4023 13.1171 80.9903 14.1222 81.1583 15.3942Z" fill="#6B6B6B"/>
<path d="M62.7552 19.3902V11.4521H66.5893V25.2763H62.9082V22.7653H62.7642C62.4522 23.5753 61.9332 24.2263 61.2072 24.7183C60.4871 25.2103 59.6081 25.4563 58.5701 25.4563C57.6461 25.4563 56.8331 25.2463 56.1311 24.8263C55.429 24.4063 54.88 23.8093 54.484 23.0353C54.094 22.2613 53.896 21.3343 53.89 20.2542V11.4521H57.7241V19.5702C57.7301 20.3862 57.9491 21.0313 58.3811 21.5053C58.8131 21.9793 59.3921 22.2163 60.1181 22.2163C60.5802 22.2163 61.0122 22.1113 61.4142 21.9013C61.8162 21.6853 62.1402 21.3673 62.3862 20.9473C62.6382 20.5272 62.7612 20.0082 62.7552 19.3902Z" fill="#6B6B6B"/>
<path d="M37.8495 25.2764V6.844H41.6836V13.7741H41.8006C41.9686 13.4021 42.2116 13.0241 42.5296 12.6401C42.8536 12.2501 43.2736 11.9261 43.7896 11.6681C44.3116 11.4041 44.9596 11.2721 45.7336 11.2721C46.7417 11.2721 47.6717 11.5361 48.5237 12.0641C49.3757 12.5861 50.0567 13.3751 50.5667 14.4312C51.0768 15.4812 51.3318 16.7982 51.3318 18.3822C51.3318 19.9243 51.0828 21.2263 50.5847 22.2883C50.0927 23.3443 49.4207 24.1454 48.5687 24.6914C47.7227 25.2314 46.7747 25.5014 45.7246 25.5014C44.9806 25.5014 44.3476 25.3784 43.8256 25.1324C43.3096 24.8864 42.8866 24.5774 42.5566 24.2054C42.2266 23.8273 41.9746 23.4463 41.8006 23.0623H41.6296V25.2764H37.8495ZM41.6026 18.3642C41.6026 19.1863 41.7166 19.9033 41.9446 20.5153C42.1726 21.1273 42.5026 21.6043 42.9346 21.9463C43.3666 22.2823 43.8916 22.4503 44.5096 22.4503C45.1336 22.4503 45.6616 22.2793 46.0937 21.9373C46.5257 21.5893 46.8527 21.1093 47.0747 20.4973C47.3027 19.8793 47.4167 19.1683 47.4167 18.3642C47.4167 17.5662 47.3057 16.8642 47.0837 16.2582C46.8617 15.6522 46.5347 15.1782 46.1027 14.8362C45.6706 14.4942 45.1396 14.3232 44.5096 14.3232C43.8856 14.3232 43.3576 14.4882 42.9256 14.8182C42.4996 15.1482 42.1726 15.6162 41.9446 16.2222C41.7166 16.8282 41.6026 17.5422 41.6026 18.3642Z" fill="#6B6B6B"/>
<path fill-rule="evenodd" clip-rule="evenodd" d="M15.9558 12.076L20.1032 16.2234L16.1542 20.1724L12.0068 16.025L15.9558 12.076ZM11.7035 7.82372L9.10326 5.22345C8.95493 5.07513 8.95493 4.83465 9.10326 4.68633L12.8184 0.971174C12.9667 0.822851 13.2072 0.822851 13.3555 0.971174L26.0564 13.6721C27.4655 15.0811 27.4655 17.3657 26.0564 18.7748L20.4065 24.4247L23.0068 27.025C23.1551 27.1733 23.1551 27.4138 23.0068 27.5621L19.2916 31.2772C19.1433 31.4256 18.9028 31.4256 18.7545 31.2772L6.05364 18.5764C4.64456 17.1673 4.64456 14.8827 6.05364 13.4736L11.7035 7.82372Z" fill="#6B6B6B"/>
</g>
<defs>
<clipPath id="clip0_6010_18888">
<rect width="148" height="32" fill="white"/>
</clipPath>
</defs>
</svg>
