<svg width="128" height="30" viewBox="0 0 128 30" fill="none" xmlns="http://www.w3.org/2000/svg">
<path d="M120.676 9.2591C124.138 9.2591 126.979 12.2298 126.979 16.0787C126.979 19.9276 124.138 22.8983 120.676 22.8983C118.791 22.8983 117.422 22.2008 116.492 21.0126V27.703H113.159V9.62075H116.492V11.1448C117.422 9.95656 118.791 9.2591 120.676 9.2591ZM120.056 19.721C122.123 19.721 123.647 18.2486 123.647 16.0787C123.647 13.9088 122.123 12.4364 120.056 12.4364C118.016 12.4364 116.492 13.9088 116.492 16.0787C116.492 18.2486 118.016 19.721 120.056 19.721Z" fill="#6B6B6B"/>
<path d="M106.775 9.62073H110.107V22.5366H106.775V21.0901C106 22.2525 104.657 22.8983 102.926 22.8983C100.188 22.8983 98.0438 20.9867 98.0438 17.5511V9.62073H101.376V17.1378C101.376 18.8944 102.435 19.7985 103.933 19.7985C105.561 19.7985 106.775 18.8427 106.775 16.5953V9.62073Z" fill="#6B6B6B"/>
<path d="M95.6992 12.8239H92.7802V18.1969C92.7802 19.5918 93.7876 19.6177 95.6992 19.5143V22.5367C91.0236 23.0533 89.4479 21.6842 89.4479 18.1969V12.8239H87.2005V9.62074H89.4479V7.01173L92.7802 6.00429V9.62074H95.6992V12.8239Z" fill="#6B6B6B"/>
<path d="M82.0828 11.8423C82.7545 10.0857 84.3819 9.36242 86.0093 9.36242V13.0822C84.2785 12.8755 82.0828 13.6505 82.0828 16.3628V22.5366H78.7505V9.62074H82.0828V11.8423Z" fill="#6B6B6B"/>
<path d="M72.3965 9.62075H75.7288V22.5367H72.3965V21.0126C71.4665 22.175 70.0716 22.8983 68.1859 22.8983C64.7503 22.8983 61.9088 19.9276 61.9088 16.0787C61.9088 12.2298 64.7503 9.2591 68.1859 9.2591C70.0716 9.2591 71.4665 9.98239 72.3965 11.1448V9.62075ZM68.8059 19.721C70.8724 19.721 72.3965 18.2486 72.3965 16.0787C72.3965 13.9088 70.8724 12.4364 68.8059 12.4364C66.7652 12.4364 65.2411 13.9088 65.2411 16.0787C65.2411 18.2486 66.7652 19.721 68.8059 19.721Z" fill="#6B6B6B"/>
<path d="M60.6345 12.8239H57.7155V18.1969C57.7155 19.5918 58.723 19.6177 60.6345 19.5143V22.5367C55.959 23.0533 54.3832 21.6842 54.3832 18.1969V12.8239H52.1359V9.62074H54.3832V7.01173L57.7155 6.00429V9.62074H60.6345V12.8239Z" fill="#6B6B6B"/>
<path d="M44.8174 13.2889C44.8174 15.2004 51.482 14.0122 51.482 18.7652C51.482 21.555 49.0538 22.8983 46.2898 22.8983C43.7066 22.8983 41.7951 21.8134 40.8651 19.8243L43.7583 18.1969C44.1199 19.256 44.9982 19.876 46.2898 19.876C47.3489 19.876 48.0722 19.5143 48.0722 18.7652C48.0722 16.8795 41.4076 17.9128 41.4076 13.3664C41.4076 10.7315 43.655 9.2591 46.3156 9.2591C48.408 9.2591 50.2162 10.2149 51.2237 11.9973L48.3822 13.5472C47.9947 12.7206 47.2714 12.2298 46.3156 12.2298C45.489 12.2298 44.8174 12.5914 44.8174 13.2889Z" fill="#6B6B6B"/>
<path d="M10.0596 17.3884L4.22369 23.2841C3.41283 24.1033 2.08752 24.0975 1.28388 23.2712C0.49764 22.4628 0.507817 21.1724 1.30671 20.3765L9.13104 12.5816C9.97829 11.7376 11.3481 11.7362 12.1971 12.5785L15.8988 16.2516L22.1093 9.95993H17.8878C16.7893 9.95993 15.8988 9.06943 15.8988 7.97095C15.8988 6.87247 16.7893 5.98197 17.8878 5.98197H26.8761C28.077 5.98197 29.0504 6.95544 29.0504 8.15628V17.0634C29.0504 18.2067 28.1236 19.1336 26.9803 19.1336C25.8369 19.1336 24.9101 18.2067 24.9101 17.0634V12.8419L17.7077 20.0119C16.7023 21.0127 15.0815 21.0269 14.0587 20.0438L11.2804 17.3732C10.9377 17.0438 10.394 17.0506 10.0596 17.3884Z" fill="#6B6B6B"/>
</svg>
