<svg width="154" height="26" viewBox="0 0 154 26" fill="none" xmlns="http://www.w3.org/2000/svg">
<path d="M146.356 8.99013C147.233 7.93592 148.314 7.40197 149.601 7.38828C150.299 7.37459 150.916 7.49096 151.45 7.7374C151.983 7.97015 152.415 8.29189 152.743 8.70262C153.14 9.1818 153.414 9.74313 153.565 10.3866C153.715 11.0164 153.791 11.7215 153.791 12.5019V18.4369H150.875V12.7278C150.875 12.3444 150.833 11.9816 150.751 11.6393C150.683 11.2834 150.56 10.9822 150.382 10.7357C150.204 10.4756 149.964 10.2839 149.663 10.1607C149.375 10.0375 149.047 9.97588 148.677 9.97588C148.212 9.98957 147.815 10.0923 147.486 10.2839C147.171 10.4756 146.932 10.722 146.767 11.0232C146.603 11.3108 146.487 11.6393 146.418 12.009C146.363 12.365 146.336 12.7278 146.336 13.0974V18.4369H143.44V7.61418H146.213L146.356 8.99013Z" fill="#6B6B6B"/>
<path d="M136.098 18.6013C134.345 18.6013 132.997 18.1084 132.052 17.1226C131.107 16.1232 130.635 14.7404 130.635 12.9743C130.635 12.1254 130.758 11.3587 131.005 10.6742C131.265 9.97594 131.621 9.38038 132.073 8.8875C132.538 8.39462 133.106 8.02497 133.777 7.77853C134.462 7.5184 135.235 7.38834 136.098 7.38834C136.947 7.38834 137.706 7.5184 138.377 7.77853C139.062 8.02497 139.637 8.39462 140.102 8.8875C140.582 9.38038 140.944 9.97594 141.191 10.6742C141.451 11.3587 141.581 12.1254 141.581 12.9743C141.581 14.7541 141.102 16.1369 140.143 17.1226C139.199 18.1084 137.85 18.6013 136.098 18.6013ZM136.098 9.97594C135.208 9.97594 134.551 10.2634 134.126 10.8385C133.702 11.4135 133.49 12.1323 133.49 12.9948C133.49 13.871 133.702 14.5966 134.126 15.1717C134.551 15.7467 135.208 16.0342 136.098 16.0342C136.988 16.0342 137.638 15.7467 138.049 15.1717C138.459 14.5966 138.665 13.871 138.665 12.9948C138.665 12.1323 138.459 11.4135 138.049 10.8385C137.638 10.2634 136.988 9.97594 136.098 9.97594Z" fill="#6B6B6B"/>
<path d="M127.153 2.58279C127.687 2.58279 128.118 2.74024 128.447 3.05513C128.775 3.37003 128.94 3.7876 128.94 4.30786C128.94 4.8555 128.775 5.28677 128.447 5.60166C128.118 5.90286 127.687 6.05346 127.153 6.05346C126.633 6.05346 126.201 5.90286 125.859 5.60166C125.531 5.28677 125.366 4.8555 125.366 4.30786C125.366 3.7876 125.531 3.37003 125.859 3.05513C126.201 2.74024 126.633 2.58279 127.153 2.58279ZM128.611 18.437H125.715V7.61424H128.611V18.437Z" fill="#6B6B6B"/>
<path d="M121.407 10.1402V14.5145C121.407 15.4454 121.879 15.9109 122.824 15.9109H123.892V18.4369H122.537C121.099 18.4917 120.065 18.2179 119.436 17.6155C118.819 17.0131 118.511 16.1026 118.511 14.8841V10.1402H116.869V7.61419H118.511V4.67747H121.407V7.61419H123.995V10.1402H121.407Z" fill="#6B6B6B"/>
<path d="M112.695 17.1021C112.284 17.6497 111.784 18.0399 111.196 18.2727C110.607 18.5054 109.922 18.615 109.142 18.6013C108.142 18.5739 107.307 18.2932 106.636 17.7593C106.28 17.4581 106 17.1021 105.794 16.6914C105.603 16.267 105.507 15.7672 105.507 15.1922C105.521 14.6035 105.651 14.0832 105.897 13.6314C106.157 13.1659 106.547 12.7826 107.068 12.4814C107.506 12.2486 107.999 12.0844 108.546 11.9885C109.108 11.8927 109.717 11.8448 110.374 11.8448H112.592C112.633 11.1739 112.476 10.6742 112.12 10.3456C111.777 10.0033 111.291 9.82533 110.662 9.81164C110.456 9.81164 110.244 9.82534 110.025 9.85272C109.806 9.8801 109.601 9.93486 109.409 10.017C109.231 10.0992 109.073 10.2155 108.936 10.3661C108.813 10.503 108.731 10.6742 108.69 10.8795H105.712C105.781 10.2224 105.959 9.67473 106.246 9.23662C106.547 8.78482 106.924 8.42201 107.376 8.14819C107.828 7.87437 108.327 7.68269 108.875 7.57316C109.436 7.44995 110.011 7.38834 110.6 7.38834C110.929 7.38834 111.264 7.40887 111.606 7.44995C111.949 7.47733 112.284 7.54578 112.613 7.65531C112.941 7.75115 113.249 7.88806 113.537 8.06604C113.838 8.23033 114.119 8.44939 114.379 8.72321C114.844 9.25716 115.132 9.87325 115.241 10.5715C115.364 11.256 115.419 11.9269 115.405 12.5841V18.437H112.756L112.695 17.1021ZM112.592 13.652H110.477C110.271 13.652 110.039 13.6725 109.778 13.7136C109.518 13.7547 109.292 13.83 109.101 13.9395C108.909 14.049 108.745 14.1928 108.608 14.3707C108.485 14.5487 108.423 14.7678 108.423 15.0279C108.423 15.247 108.464 15.4386 108.546 15.6029C108.642 15.7672 108.759 15.9041 108.895 16.0137C109.046 16.1232 109.224 16.2122 109.429 16.2806C109.635 16.3354 109.84 16.3628 110.045 16.3628C110.442 16.3765 110.812 16.308 111.154 16.1574C111.51 16.0068 111.818 15.7946 112.079 15.5208C112.243 15.3017 112.366 15.0553 112.448 14.7815C112.544 14.494 112.592 14.1175 112.592 13.652Z" fill="#6B6B6B"/>
<path d="M104.033 9.70892L98.7757 15.9109H104.033V18.4369H94.997V16.3217L100.213 10.1196H94.997V7.6142H104.033V9.70892Z" fill="#6B6B6B"/>
<path d="M91.5149 2.58279C92.0489 2.58279 92.4801 2.74024 92.8087 3.05513C93.1373 3.37003 93.3016 3.7876 93.3016 4.30786C93.3016 4.8555 93.1373 5.28677 92.8087 5.60166C92.4801 5.90286 92.0489 6.05346 91.5149 6.05346C90.9947 6.05346 90.5634 5.90286 90.2211 5.60166C89.8925 5.28677 89.7282 4.8555 89.7282 4.30786C89.7282 3.7876 89.8925 3.37003 90.2211 3.05513C90.5634 2.74024 90.9947 2.58279 91.5149 2.58279ZM92.973 18.437H90.0774V7.61424H92.973V18.437Z" fill="#6B6B6B"/>
<path d="M80.2547 8.99013C81.1309 7.93592 82.2125 7.40197 83.4995 7.38828C84.1977 7.37459 84.8138 7.49096 85.3477 7.7374C85.8817 7.97015 86.313 8.29189 86.6415 8.70262C87.0386 9.1818 87.3124 9.74313 87.463 10.3866C87.6136 11.0164 87.6889 11.7215 87.6889 12.5019V18.4369H84.7727V12.7278C84.7727 12.3444 84.7316 11.9816 84.6495 11.6393C84.581 11.2834 84.4578 10.9822 84.2798 10.7357C84.1019 10.4756 83.8623 10.2839 83.5611 10.1607C83.2736 10.0375 82.945 9.97588 82.5753 9.97588C82.1098 9.98957 81.7128 10.0923 81.3842 10.2839C81.0693 10.4756 80.8297 10.722 80.6654 11.0232C80.5011 11.3108 80.3847 11.6393 80.3163 12.009C80.2615 12.365 80.2342 12.7278 80.2342 13.0974V18.4369H77.3385V7.61418H80.1109L80.2547 8.99013Z" fill="#6B6B6B"/>
<path d="M72.3636 17.1021C71.9529 17.6497 71.4532 18.0399 70.8645 18.2727C70.2758 18.5054 69.5912 18.615 68.8108 18.6013C67.8114 18.5739 66.9762 18.2932 66.3054 17.7593C65.9494 17.4581 65.6687 17.1021 65.4634 16.6914C65.2717 16.267 65.1759 15.7672 65.1759 15.1922C65.1896 14.6035 65.3196 14.0832 65.5661 13.6314C65.8262 13.1659 66.2164 12.7826 66.7366 12.4814C67.1748 12.2486 67.6676 12.0844 68.2153 11.9885C68.7766 11.8927 69.3859 11.8448 70.043 11.8448H72.261C72.302 11.1739 72.1446 10.6742 71.7886 10.3456C71.4464 10.0033 70.9603 9.82533 70.3305 9.81164C70.1252 9.81164 69.913 9.82534 69.6939 9.85272C69.4748 9.8801 69.2695 9.93486 69.0778 10.017C68.8998 10.0992 68.7424 10.2155 68.6055 10.3661C68.4823 10.503 68.4001 10.6742 68.359 10.8795H65.3812C65.4497 10.2224 65.6277 9.67473 65.9152 9.23662C66.2164 8.78482 66.5929 8.42201 67.0447 8.14819C67.4965 7.87437 67.9962 7.68269 68.5439 7.57316C69.1052 7.44995 69.6802 7.38834 70.2689 7.38834C70.5975 7.38834 70.9329 7.40887 71.2752 7.44995C71.6175 7.47733 71.9529 7.54578 72.2815 7.65531C72.6101 7.75115 72.9181 7.88806 73.2056 8.06604C73.5069 8.23033 73.7875 8.44939 74.0476 8.72321C74.5131 9.25716 74.8006 9.87325 74.9102 10.5715C75.0334 11.256 75.0882 11.9269 75.0745 12.5841V18.437H72.4253L72.3636 17.1021ZM72.261 13.652H70.1457C69.9403 13.652 69.7076 13.6725 69.4475 13.7136C69.1873 13.7547 68.9614 13.83 68.7698 13.9395C68.5781 14.049 68.4138 14.1928 68.2769 14.3707C68.1537 14.5487 68.0921 14.7678 68.0921 15.0279C68.0921 15.247 68.1331 15.4386 68.2153 15.6029C68.3111 15.7672 68.4275 15.9041 68.5644 16.0137C68.715 16.1232 68.893 16.2122 69.0983 16.2806C69.3037 16.3354 69.5091 16.3628 69.7144 16.3628C70.1115 16.3765 70.4811 16.308 70.8234 16.1574C71.1794 16.0068 71.4874 15.7946 71.7476 15.5208C71.9118 15.3017 72.0351 15.0553 72.1172 14.7815C72.213 14.494 72.261 14.1175 72.261 13.652Z" fill="#6B6B6B"/>
<path d="M60.3571 17.328C59.9463 17.7935 59.4535 18.122 58.8784 18.3137C58.3034 18.5054 57.6805 18.6012 57.0096 18.6012C56.3388 18.6012 55.6816 18.4985 55.0381 18.2932C54.4083 18.0741 53.8607 17.725 53.3952 17.2458C52.8749 16.6982 52.5121 16.0684 52.3068 15.3565C52.1014 14.6445 51.9987 13.9121 51.9987 13.159C51.9987 11.3792 52.4916 9.95535 53.4773 8.88745C53.9018 8.42196 54.4494 8.05915 55.1203 7.79902C55.8048 7.53889 56.5373 7.41567 57.3177 7.42936C57.8242 7.40198 58.3719 7.49097 58.9606 7.69634C59.5493 7.9017 60.0559 8.24398 60.4803 8.72316L60.7883 7.61419H63.2938V17.7592C63.2938 18.1973 63.2664 18.6286 63.2117 19.053C63.1706 19.4911 63.0953 19.9087 62.9857 20.3058C62.8762 20.7165 62.7119 21.1067 62.4929 21.4763C62.2464 21.9281 61.9452 22.3115 61.5893 22.6264C61.247 22.9413 60.8636 23.2014 60.4392 23.4068C60.0148 23.6258 59.563 23.7833 59.0838 23.8791C58.6046 23.9749 58.1186 24.0229 57.6257 24.0229C56.9959 24.0229 56.3935 23.9476 55.8185 23.797C55.2435 23.66 54.7164 23.4273 54.2372 23.0987C53.7717 22.7838 53.3815 22.3799 53.0666 21.8871C52.7654 21.3942 52.5669 20.8055 52.4711 20.1209H55.5515C55.6063 20.4495 55.8254 20.7439 56.2087 21.004C56.5921 21.2641 57.0575 21.3942 57.6052 21.3942C58.1939 21.3942 58.6731 21.2778 59.0427 21.0451C59.4261 20.8123 59.7136 20.5043 59.9053 20.1209C60.0969 19.7376 60.2202 19.2995 60.2749 18.8066C60.3297 18.3137 60.3571 17.8208 60.3571 17.328ZM57.6668 16.0342C58.1186 16.0342 58.5156 15.952 58.8579 15.7877C59.2139 15.6234 59.5014 15.4044 59.7204 15.1306C59.9395 14.843 60.1038 14.5145 60.2133 14.1448C60.3228 13.7615 60.3776 13.3576 60.3776 12.9331C60.3776 12.0843 60.138 11.3861 59.6588 10.8384C59.1933 10.2771 58.5225 9.98958 57.6463 9.97589C57.1945 9.97589 56.7906 10.058 56.4346 10.2223C56.0923 10.3866 55.8048 10.6057 55.5721 10.8795C55.353 11.1533 55.1887 11.4751 55.0792 11.8447C54.9697 12.2144 54.9149 12.6114 54.9149 13.0358C54.9149 13.4876 54.9697 13.8984 55.0792 14.268C55.2024 14.624 55.3804 14.9389 55.6131 15.2127C55.8459 15.4728 56.1334 15.6782 56.4757 15.8288C56.818 15.9657 57.215 16.0342 57.6668 16.0342Z" fill="#6B6B6B"/>
<path d="M47.0012 8.96961C47.4394 8.44935 47.9048 8.05916 48.3977 7.79903C48.9043 7.5389 49.5067 7.40884 50.2049 7.40884C50.3829 7.40884 50.5541 7.41568 50.7183 7.42937C50.8826 7.44306 51.0332 7.4636 51.1702 7.49098V10.1607C50.8553 10.1607 50.5335 10.1676 50.2049 10.1813C49.89 10.1813 49.5888 10.2086 49.3013 10.2634C49.0138 10.3182 48.7332 10.4072 48.4593 10.5304C48.1992 10.6399 47.9665 10.8042 47.7611 11.0233C47.4462 11.3792 47.2477 11.7626 47.1655 12.1733C47.0971 12.584 47.0629 13.0495 47.0629 13.5698V18.4369H44.1672V7.6142H46.837L47.0012 8.96961Z" fill="#6B6B6B"/>
<path d="M36.8246 18.6013C35.0721 18.6013 33.7236 18.1084 32.7789 17.1226C31.8342 16.1232 31.3619 14.7404 31.3619 12.9743C31.3619 12.1254 31.4851 11.3587 31.7315 10.6742C31.9917 9.97594 32.3476 9.38038 32.7994 8.8875C33.2649 8.39462 33.8331 8.02497 34.504 7.77853C35.1885 7.5184 35.9621 7.38834 36.8246 7.38834C37.6734 7.38834 38.4333 7.5184 39.1041 7.77853C39.7887 8.02497 40.3637 8.39462 40.8292 8.8875C41.3084 9.38038 41.6712 9.97594 41.9176 10.6742C42.1778 11.3587 42.3078 12.1254 42.3078 12.9743C42.3078 14.7541 41.8286 16.1369 40.8703 17.1226C39.9256 18.1084 38.577 18.6013 36.8246 18.6013ZM36.8246 9.97594C35.9347 9.97594 35.2775 10.2634 34.8531 10.8385C34.4287 11.4135 34.2165 12.1323 34.2165 12.9948C34.2165 13.871 34.4287 14.5966 34.8531 15.1717C35.2775 15.7467 35.9347 16.0342 36.8246 16.0342C37.7145 16.0342 38.3648 15.7467 38.7756 15.1717C39.1863 14.5966 39.3916 13.871 39.3916 12.9948C39.3916 12.1323 39.1863 11.4135 38.7756 10.8385C38.3648 10.2634 37.7145 9.97594 36.8246 9.97594Z" fill="#6B6B6B"/>
<path d="M11.5668 2.49921C11.5668 1.65521 10.8791 0.959699 10.0439 1.0811C9.17735 1.20706 8.3278 1.44032 7.51516 1.77693C6.23063 2.309 5.06347 3.08887 4.08032 4.07202C3.09718 5.05516 2.31731 6.22232 1.78524 7.50686C1.25316 8.79139 0.979309 10.1682 0.979308 11.5585C0.979308 12.9489 1.25316 14.3257 1.78524 15.6102C2.31731 16.8947 3.09718 18.0619 4.08032 19.045C5.06347 20.0282 6.23063 20.8081 7.51516 21.3401C8.7997 21.8722 10.1765 22.1461 11.5668 22.1461L11.5668 17.064C10.8438 17.064 10.1279 16.9216 9.45997 16.645C8.79201 16.3683 8.18508 15.9627 7.67385 15.4515C7.16261 14.9403 6.75708 14.3334 6.4804 13.6654C6.20373 12.9974 6.06132 12.2815 6.06132 11.5585C6.06132 10.8355 6.20373 10.1196 6.4804 9.45166C6.75708 8.7837 7.16261 8.17677 7.67385 7.66554C8.18508 7.15431 8.79201 6.74877 9.45997 6.4721C9.65559 6.39106 9.85533 6.32155 10.0582 6.26376C10.8699 6.03247 11.5668 5.36881 11.5668 4.5248L11.5668 2.49921Z" fill="#6B6B6B"/>
<path d="M20.4836 11.5586C21.3276 11.5586 22.0231 12.2463 21.9017 13.0815C21.7758 13.948 21.5425 14.7976 21.2059 15.6102C20.6738 16.8948 19.8939 18.0619 18.9108 19.0451C17.9277 20.0282 16.7605 20.8081 15.476 21.3402C14.1914 21.8722 12.8147 22.1461 11.4243 22.1461L11.4243 17.0641C12.1473 17.0641 12.8632 16.9217 13.5312 16.645C14.1991 16.3683 14.806 15.9628 15.3173 15.4515C15.8285 14.9403 16.234 14.3334 16.5107 13.6654C16.5917 13.4698 16.6613 13.2701 16.7191 13.0672C16.9503 12.2555 17.614 11.5586 18.458 11.5586L20.4836 11.5586Z" fill="#6B6B6B"/>
<path d="M22.2693 0.975731C23.1133 0.975731 23.8088 1.66342 23.6874 2.49866C23.5615 3.36521 23.3282 4.21476 22.9916 5.0274C22.4595 6.31194 21.6797 7.4791 20.6965 8.46224C19.7134 9.44539 18.5462 10.2253 17.2617 10.7573C16.4491 11.0939 15.5995 11.3272 14.7329 11.4532C13.8977 11.5746 13.21 10.8791 13.21 10.035L13.21 8.00946C13.21 7.16545 13.907 6.50179 14.7187 6.2705C14.9215 6.21271 15.1213 6.1432 15.3169 6.06216C15.9848 5.78549 16.5918 5.37995 17.103 4.86872C17.6142 4.35748 18.0198 3.75056 18.2965 3.0826C18.3775 2.88697 18.447 2.68723 18.5048 2.4844C18.7361 1.6727 19.3997 0.975732 20.2437 0.975732L22.2693 0.975731Z" fill="#6B6B6B"/>
</svg>
