<svg width="138" height="26" viewBox="0 0 138 26" fill="none" xmlns="http://www.w3.org/2000/svg">
<path d="M133.096 7.5418H136.348L132.059 19.3269C130.833 22.721 128.829 24.206 125.836 24.041V21.2125C127.51 21.2361 128.358 20.529 128.924 18.9498L124.092 7.5418H127.415L130.479 15.4614L133.096 7.5418Z" fill="#6B6B6B"/>
<path d="M118.614 7.21182C121.112 7.21182 123.069 8.95602 123.069 12.0909V19.3269H120.028V12.468C120.028 10.8652 119.062 10.0403 117.695 10.0403C116.21 10.0403 115.102 10.9123 115.102 12.963V19.3269H112.061V7.54181H115.102V8.86174C115.809 7.80108 117.035 7.21182 118.614 7.21182Z" fill="#6B6B6B"/>
<path d="M106.264 7.54181H109.304V19.3269H106.264V17.9363C105.415 18.9969 104.142 19.6569 102.422 19.6569C99.287 19.6569 96.6942 16.9463 96.6942 13.4344C96.6942 9.9224 99.287 7.21182 102.422 7.21182C104.142 7.21182 105.415 7.87179 106.264 8.93245V7.54181ZM102.987 16.7578C104.873 16.7578 106.264 15.4143 106.264 13.4344C106.264 11.4545 104.873 10.111 102.987 10.111C101.125 10.111 99.7348 11.4545 99.7348 13.4344C99.7348 15.4143 101.125 16.7578 102.987 16.7578Z" fill="#6B6B6B"/>
<path d="M89.4116 7.21182C92.57 7.21182 95.1627 9.9224 95.1627 13.4344C95.1627 16.9463 92.57 19.6569 89.4116 19.6569C87.691 19.6569 86.4417 19.0205 85.5932 17.9363V24.041H82.5526V7.54181H85.5932V8.93245C86.4417 7.84822 87.691 7.21182 89.4116 7.21182ZM88.8459 16.7578C90.7315 16.7578 92.1222 15.4143 92.1222 13.4344C92.1222 11.4545 90.7315 10.111 88.8459 10.111C86.9838 10.111 85.5932 11.4545 85.5932 13.4344C85.5932 15.4143 86.9838 16.7578 88.8459 16.7578Z" fill="#6B6B6B"/>
<path d="M75.5155 7.21182C78.2025 7.21182 79.9702 9.12101 79.9702 12.0673V19.3269H76.9297V12.2794C76.9297 10.8888 76.2226 10.0403 74.9498 10.0403C73.6063 10.0403 72.7577 10.9359 72.7577 12.7037V19.3269H69.7172V12.2794C69.7172 10.8888 69.0101 10.0403 67.7373 10.0403C66.4409 10.0403 65.5217 10.9359 65.5217 12.7037V19.3269H62.4811V7.54181H65.5217V8.79103C66.1816 7.80108 67.2894 7.21182 68.7979 7.21182C70.2593 7.21182 71.3435 7.82465 72.0035 8.90888C72.7342 7.84822 73.9127 7.21182 75.5155 7.21182Z" fill="#6B6B6B"/>
<path d="M54.096 19.6569C50.6312 19.6569 47.8735 16.9463 47.8735 13.4344C47.8735 9.9224 50.6312 7.21182 54.096 7.21182C57.5608 7.21182 60.3421 9.9224 60.3421 13.4344C60.3421 16.9463 57.5608 19.6569 54.096 19.6569ZM54.096 16.6871C55.9109 16.6871 57.3016 15.3436 57.3016 13.4344C57.3016 11.5252 55.9109 10.1817 54.096 10.1817C52.3047 10.1817 50.914 11.5252 50.914 13.4344C50.914 15.3436 52.3047 16.6871 54.096 16.6871Z" fill="#6B6B6B"/>
<path d="M41.7354 19.6569C38.1528 19.6569 35.5129 16.9463 35.5129 13.4343C35.5129 9.92238 38.1528 7.21181 41.7354 7.21181C44.0453 7.21181 46.0488 8.43746 47.0152 10.2524L44.3989 11.7844C43.9275 10.8181 42.914 10.2052 41.7119 10.2052C39.897 10.2052 38.5535 11.5487 38.5535 13.4343C38.5535 15.2964 39.897 16.6399 41.7119 16.6399C42.9375 16.6399 43.951 16.0506 44.4225 15.0843L47.0623 16.5928C46.0488 18.4312 44.0453 19.6569 41.7354 19.6569Z" fill="#6B6B6B"/>
<path fill-rule="evenodd" clip-rule="evenodd" d="M9.5644 0.659348C8.54744 0.659348 7.72302 1.48376 7.72302 2.50072V8.25208H1.86561C0.848642 8.25208 0.0242293 9.07649 0.0242293 10.0935V23.67C0.0242293 24.6869 0.848641 25.5113 1.86561 25.5113H15.2808C16.2978 25.5113 17.1222 24.6869 17.1222 23.67V17.9186H22.9796C23.9966 17.9186 24.821 17.0942 24.821 16.0772V2.50072C24.821 1.48376 23.9966 0.659348 22.9796 0.659348H9.5644ZM17.1222 17.9186V10.0935C17.1222 9.07649 16.2978 8.25208 15.2808 8.25208H7.72302V16.0772C7.72302 17.0942 8.54744 17.9186 9.5644 17.9186H17.1222Z" fill="#6B6B6B"/>
</svg>
