<svg width="50" height="51" viewBox="0 0 50 51" fill="none" xmlns="http://www.w3.org/2000/svg">
<mask id="path-1-inside-1_5827_11748" fill="white">
<path d="M37.2324 25.0613C40.5476 25.0613 43.7271 23.7443 46.0713 21.4001C48.4155 19.0559 49.7324 15.8765 49.7324 12.5613C49.7324 9.24607 48.4155 6.06665 46.0713 3.72245C43.7271 1.37824 40.5476 0.0612794 37.2324 0.0612788L37.2324 12.5613L37.2324 25.0613Z"/>
</mask>
<path d="M37.2324 25.0613C40.5476 25.0613 43.7271 23.7443 46.0713 21.4001C48.4155 19.0559 49.7324 15.8765 49.7324 12.5613C49.7324 9.24607 48.4155 6.06665 46.0713 3.72245C43.7271 1.37824 40.5476 0.0612794 37.2324 0.0612788L37.2324 12.5613L37.2324 25.0613Z" stroke="#1F1F1F" stroke-width="2" mask="url(#path-1-inside-1_5827_11748)"/>
<mask id="path-2-inside-2_5827_11748" fill="white">
<path d="M25.5371 25.0613C28.8523 25.0613 32.0317 23.7443 34.3759 21.4001C36.7201 19.0559 38.0371 15.8765 38.0371 12.5613C38.0371 9.24607 36.7201 6.06665 34.3759 3.72245C32.0317 1.37824 28.8523 0.0612794 25.5371 0.0612788L25.5371 12.5613L25.5371 25.0613Z"/>
</mask>
<path d="M25.5371 25.0613C28.8523 25.0613 32.0317 23.7443 34.3759 21.4001C36.7201 19.0559 38.0371 15.8765 38.0371 12.5613C38.0371 9.24607 36.7201 6.06665 34.3759 3.72245C32.0317 1.37824 28.8523 0.0612794 25.5371 0.0612788L25.5371 12.5613L25.5371 25.0613Z" stroke="#1F1F1F" stroke-width="2" mask="url(#path-2-inside-2_5827_11748)"/>
<mask id="path-3-inside-3_5827_11748" fill="white">
<path d="M13.7637 25.0613C17.0789 25.0613 20.2583 23.7443 22.6025 21.4001C24.9467 19.0559 26.2637 15.8765 26.2637 12.5613C26.2637 9.24607 24.9467 6.06665 22.6025 3.72245C20.2583 1.37824 17.0789 0.0612794 13.7637 0.0612788L13.7637 12.5613L13.7637 25.0613Z"/>
</mask>
<path d="M13.7637 25.0613C17.0789 25.0613 20.2583 23.7443 22.6025 21.4001C24.9467 19.0559 26.2637 15.8765 26.2637 12.5613C26.2637 9.24607 24.9467 6.06665 22.6025 3.72245C20.2583 1.37824 17.0789 0.0612794 13.7637 0.0612788L13.7637 12.5613L13.7637 25.0613Z" stroke="#1F1F1F" stroke-width="2" mask="url(#path-3-inside-3_5827_11748)"/>
<rect x="0.5" y="25.5613" width="24.5378" height="24.5378" stroke="#1F1F1F"/>
</svg>
