<svg width="30" height="30" viewBox="0 0 30 30" fill="none" xmlns="http://www.w3.org/2000/svg">
<g clip-path="url(#clip0_5737_10888)">
<path d="M28.5537 15.0075C28.5537 13.8193 28.4577 12.9523 28.2498 12.0532H14.7344V17.4158H22.6676C22.5078 18.7485 21.644 20.7554 19.7247 22.104L19.6978 22.2836L23.9711 25.6067L24.2671 25.6364C26.9862 23.1156 28.5537 19.4067 28.5537 15.0075Z" fill="#4C8BF3"/>
<path d="M14.7347 29.1367C18.6214 29.1367 21.8842 27.8522 24.2675 25.6366L19.725 22.1042C18.5094 22.9552 16.8779 23.5492 14.7347 23.5492C10.928 23.5492 7.69713 21.0285 6.54541 17.5444L6.37659 17.5588L1.93311 21.0108L1.875 21.173C4.24218 25.8933 9.10456 29.1367 14.7347 29.1367Z" fill="#34A853"/>
<path d="M6.53397 17.5442C6.23008 16.6451 6.05421 15.6817 6.05421 14.6863C6.05421 13.6908 6.23008 12.7274 6.51799 11.8283L6.50994 11.6368L2.01078 8.12939L1.86357 8.19968C0.887943 10.1585 0.328125 12.3582 0.328125 14.6863C0.328125 17.0143 0.887943 19.2139 1.86357 21.1727L6.53397 17.5442Z" fill="#FFD584"/>
<path d="M14.7347 5.8237C17.4377 5.8237 19.2611 6.99576 20.3008 7.97523L24.3634 3.99338C21.8683 1.6653 18.6213 0.236328 14.7347 0.236328C9.10455 0.236328 4.24218 3.47957 1.875 8.19993L6.52941 11.8286C7.69712 8.34449 10.928 5.8237 14.7347 5.8237Z" fill="#EA4335"/>
</g>
<defs>
<clipPath id="clip0_5737_10888">
<rect width="29.1254" height="29" fill="white" transform="translate(-0.0078125 0.236328)"/>
</clipPath>
</defs>
</svg>
