<svg width="186" height="47" viewBox="0 0 186 47" fill="none" xmlns="http://www.w3.org/2000/svg">
<mask id="mask0_5739_25664" style="mask-type:alpha" maskUnits="userSpaceOnUse" x="0" y="0" width="47" height="47">
<circle cx="23.2581" cy="23.2801" r="22.9885" fill="#1F1F1F" stroke="#1F1F1F" stroke-width="0.356412"/>
</mask>
<g mask="url(#mask0_5739_25664)">
<path d="M45.0883 23.2801C45.0883 35.3366 35.3145 45.1103 23.2581 45.1103C11.2016 45.1103 1.42785 35.3366 1.42785 23.2801C1.42785 11.2236 11.2016 1.44989 23.2581 1.44989C35.3145 1.44989 45.0883 11.2236 45.0883 23.2801ZM23.2581 46.625C36.1511 46.625 46.603 36.1731 46.603 23.2801C46.603 10.387 36.1511 -0.0648635 23.2581 -0.0648635C10.365 -0.0648635 -0.0868972 10.387 -0.0868972 23.2801C-0.0868972 36.1731 10.365 46.625 23.2581 46.625Z" fill="#1F1F1F" stroke="#1F1F1F" stroke-width="0.356412"/>
<path d="M40.1715 5.29655V21.844C40.1715 31.1846 32.5995 38.7566 23.2589 38.7566C13.9183 38.7566 6.34633 31.1846 6.34633 21.844V5.29655C6.34633 -4.044 13.9183 -11.616 23.2589 -11.616C32.5995 -11.616 40.1715 -4.044 40.1715 5.29655ZM23.2589 -13.2924C12.9925 -13.2924 4.66994 -4.96984 4.66994 5.29655V21.844C4.66994 32.1104 12.9925 40.433 23.2589 40.433C33.5253 40.433 41.8479 32.1104 41.8479 21.844V5.29655C41.8479 -4.96984 33.5253 -13.2924 23.2589 -13.2924Z" fill="#1F1F1F" stroke="#1F1F1F" stroke-width="0.356412"/>
<path d="M35.5823 -7.04231V19.289C35.5823 26.0951 30.0649 31.6125 23.2588 31.6125C16.4527 31.6125 10.9352 26.0951 10.9352 19.289V-7.04231C10.9352 -13.8484 16.4527 -19.3659 23.2588 -19.3659C30.0649 -19.3659 35.5823 -13.8484 35.5823 -7.04231ZM23.2588 -21.0423C15.5268 -21.0423 9.25881 -14.7743 9.25881 -7.04231V19.289C9.25881 27.0209 15.5268 33.2889 23.2588 33.2889C30.9907 33.2889 37.2587 27.0209 37.2587 19.289V-7.04231C37.2587 -14.7743 30.9907 -21.0423 23.2588 -21.0423Z" fill="#1F1F1F" stroke="#1F1F1F" stroke-width="0.356412"/>
<path d="M31.0939 -18.7531V15.529C31.0939 19.8569 27.5854 23.3654 23.2575 23.3654C18.9295 23.3654 15.421 19.8569 15.421 15.529V-18.7531C15.421 -23.081 18.9295 -26.5895 23.2575 -26.5895C27.5854 -26.5895 31.0939 -23.081 31.0939 -18.7531ZM23.2575 -28.2659C18.0037 -28.2659 13.7446 -24.0069 13.7446 -18.7531V15.529C13.7446 20.7828 18.0037 25.0418 23.2575 25.0418C28.5112 25.0418 32.7703 20.7828 32.7703 15.529V-18.7531C32.7703 -24.0069 28.5112 -28.2659 23.2575 -28.2659Z" fill="#1F1F1F" stroke="#1F1F1F" stroke-width="0.356412"/>
</g>
<path d="M61.5815 18.7827C61.5815 24.5107 74.7655 19.9987 74.7655 28.8947C74.7655 33.1827 71.2775 35.5827 66.5095 35.5827C61.6775 35.5827 58.3495 33.3747 57.4535 28.8307H61.1975C61.8055 31.2947 63.6295 32.6387 66.5415 32.6387C69.5175 32.6387 71.0855 31.3267 71.0855 29.3747C71.0855 23.2307 57.9015 27.8067 57.9015 19.0707C57.9015 15.8067 60.6535 12.9907 65.6135 12.9907C69.9015 12.9907 73.4215 15.0387 74.1895 19.8067H70.3815C69.7735 17.1187 68.0775 15.9347 65.5175 15.9347C63.0215 15.9347 61.5815 17.0547 61.5815 18.7827ZM78.424 30.0787V20.7667H76.12V18.1107H78.424V14.1747H81.848V18.1107H85.528V20.7667H81.848V29.8867C81.848 31.8387 82.392 32.7667 84.792 32.7667H85.464V35.2627C85.08 35.4547 84.28 35.5827 83.32 35.5827C79.992 35.5827 78.424 33.7587 78.424 30.0787ZM91.333 23.6787H87.909C88.453 19.9027 91.045 17.6627 95.301 17.6627C99.941 17.6627 102.245 20.3827 102.245 24.3507V31.0067C102.245 33.0547 102.437 34.2387 102.821 35.1667H99.237C98.981 34.5267 98.885 33.6307 98.853 32.6707C97.413 34.6867 95.205 35.5827 93.157 35.5827C89.701 35.5827 87.333 33.9507 87.333 30.6867C87.333 28.3507 88.613 26.6227 91.173 25.7587C93.445 24.9907 95.749 24.7987 98.821 24.7667V24.3827C98.821 21.8867 97.669 20.5427 95.045 20.5427C92.837 20.5427 91.653 21.7587 91.333 23.6787ZM90.789 30.5587C90.789 31.9987 91.973 32.8947 93.797 32.8947C96.645 32.8947 98.821 30.6227 98.821 27.8707V27.1027C92.261 27.1667 90.789 28.6067 90.789 30.5587ZM106.538 35.1667V18.1107H109.962V20.6387C111.082 18.5907 112.842 17.6627 114.826 17.6627C115.498 17.6627 116.138 17.8227 116.458 18.1107V21.1187C115.946 20.9587 115.338 20.8947 114.634 20.8947C111.37 20.8947 109.962 22.8787 109.962 25.8547V35.1667H106.538ZM119.236 30.0787V20.7667H116.932V18.1107H119.236V14.1747H122.66V18.1107H126.34V20.7667H122.66V29.8867C122.66 31.8387 123.204 32.7667 125.604 32.7667H126.276V35.2627C125.892 35.4547 125.092 35.5827 124.132 35.5827C120.804 35.5827 119.236 33.7587 119.236 30.0787ZM144.049 29.5987C143.121 33.5667 140.177 35.5827 136.177 35.5827C131.153 35.5827 128.081 32.2227 128.081 26.6547C128.081 20.8627 131.153 17.6627 136.017 17.6627C140.945 17.6627 143.921 20.9907 143.921 26.4627V27.2947H131.569C131.761 30.7827 133.393 32.7347 136.177 32.7347C138.353 32.7347 139.889 31.7107 140.465 29.5987H144.049ZM136.017 20.5107C133.553 20.5107 132.081 22.0787 131.665 24.9587H140.369C139.953 22.0787 138.449 20.5107 136.017 20.5107ZM147.351 35.1667V18.1107H150.775V20.6387C151.895 18.5907 153.655 17.6627 155.639 17.6627C156.311 17.6627 156.951 17.8227 157.271 18.1107V21.1187C156.759 20.9587 156.151 20.8947 155.447 20.8947C152.183 20.8947 150.775 22.8787 150.775 25.8547V35.1667H147.351ZM179.962 35.1667L175.002 28.1907L174.106 26.7507L173.178 28.1907L168.25 35.1667H164.442L172.218 23.9347L164.986 13.4067H169.146L173.498 19.4547L174.49 21.0867L175.482 19.4547L179.738 13.4067H183.546L176.346 23.8707L184.122 35.1667H179.962Z" fill="#1F1F1F"/>
</svg>
