<svg width="692" height="400" viewBox="0 0 692 400" fill="none" xmlns="http://www.w3.org/2000/svg">
<mask id="mask0_5737_10728" style="mask-type:alpha" maskUnits="userSpaceOnUse" x="16" y="83" width="663" height="269">
<path d="M182.4 346H138.8V288.4H16.4V250L143.2 88.8H182.4V254.8H218V288.4H182.4V346ZM53.6 254.8H138.8V142.8L53.6 254.8ZM345.669 351.2C281.269 351.2 244.069 301.6 244.069 217.6C244.069 131.6 282.069 83.6 345.669 83.6C409.669 83.6 446.869 133.2 446.869 217.6C446.869 303.6 408.869 351.2 345.669 351.2ZM345.669 314.8C382.869 314.8 403.269 280.4 403.269 217.6C403.269 155.2 382.469 120 345.669 120C308.469 120 287.669 154.4 287.669 217.6C287.669 279.2 308.469 314.8 345.669 314.8ZM643.338 346H599.738V288.4H477.338V250L604.138 88.8H643.338V254.8H678.938V288.4H643.338V346ZM514.538 254.8H599.738V142.8L514.538 254.8Z" fill="#1F1F1F"/>
</mask>
<g mask="url(#mask0_5737_10728)">
<path d="M182.4 346H138.8V288.4H16.4V250L143.2 88.8H182.4V254.8H218V288.4H182.4V346ZM53.6 254.8H138.8V142.8L53.6 254.8ZM345.669 351.2C281.269 351.2 244.069 301.6 244.069 217.6C244.069 131.6 282.069 83.6 345.669 83.6C409.669 83.6 446.869 133.2 446.869 217.6C446.869 303.6 408.869 351.2 345.669 351.2ZM345.669 314.8C382.869 314.8 403.269 280.4 403.269 217.6C403.269 155.2 382.469 120 345.669 120C308.469 120 287.669 154.4 287.669 217.6C287.669 279.2 308.469 314.8 345.669 314.8ZM643.338 346H599.738V288.4H477.338V250L604.138 88.8H643.338V254.8H678.938V288.4H643.338V346ZM514.538 254.8H599.738V142.8L514.538 254.8Z" fill="#1F1F1F"/>
<path d="M158.232 209.128L-59.1305 207.103L51.3046 19.8738L158.232 209.128Z" fill="#CEEAE8"/>
<rect x="243.258" y="264.182" width="214" height="214" transform="rotate(44.9201 243.258 264.182)" fill="#E4D275"/>
<path d="M568.37 -153.877L674.619 -42.0781L653.456 110.696L520.818 189.404L376.583 134.776L329.364 -12.0508L414.717 -140.513L568.37 -153.877Z" fill="#F1A280"/>
</g>
</svg>
