<svg width="144" height="28" viewBox="0 0 144 28" fill="none" xmlns="http://www.w3.org/2000/svg">
<g clip-path="url(#clip0_6010_18889)">
<path d="M134.674 14.2088H139.908C139.86 13.0431 139.099 11.9012 137.291 11.9012C135.649 11.9012 134.745 13.1382 134.674 14.2088ZM140.217 17.2538L142.858 18.0388C142.263 20.0609 140.407 21.7499 137.529 21.7499C134.317 21.7499 131.486 19.4424 131.486 15.4934C131.486 11.7585 134.246 9.33199 137.243 9.33199C140.859 9.33199 143.024 11.6395 143.024 15.3982C143.024 15.8502 142.976 16.326 142.976 16.3736H134.603C134.674 17.9199 135.982 19.0379 137.553 19.0379C139.027 19.0379 139.836 18.3005 140.217 17.2538Z" fill="#6B6B6B"/>
<path d="M120.924 18.134L123.636 17.5392C123.708 18.467 124.398 19.3234 125.777 19.3234C126.824 19.3234 127.324 18.7763 127.324 18.1577C127.324 17.6344 126.967 17.2062 126.063 17.0159L124.516 16.659C122.256 16.1595 121.234 14.8035 121.234 13.162C121.234 11.0686 123.089 9.33199 125.611 9.33199C128.941 9.33199 130.059 11.4492 130.202 12.71L127.561 13.3048C127.466 12.6149 126.967 11.7347 125.635 11.7347C124.802 11.7347 124.136 12.2343 124.136 12.9004C124.136 13.4713 124.564 13.8281 125.206 13.9471L126.872 14.3039C129.179 14.7797 130.345 16.1832 130.345 17.8961C130.345 19.7992 128.87 21.7499 125.801 21.7499C122.28 21.7499 121.067 19.4661 120.924 18.134Z" fill="#6B6B6B"/>
<path d="M119.012 21.3931H115.848V9.68883H119.012V21.3931ZM115.467 5.85879C115.467 4.76449 116.347 3.88429 117.418 3.88429C118.512 3.88429 119.369 4.76449 119.369 5.85879C119.369 6.90551 118.512 7.78571 117.418 7.78571C116.347 7.78571 115.467 6.90551 115.467 5.85879Z" fill="#6B6B6B"/>
<path d="M114.098 9.64122V12.829C113.741 12.7576 113.432 12.7338 113.147 12.7338C111.529 12.7338 110.125 13.5188 110.125 16.0405V21.393H106.961V9.6888H110.03V11.4254C110.744 9.87911 112.362 9.59364 113.361 9.59364C113.622 9.59364 113.86 9.61743 114.098 9.64122Z" fill="#6B6B6B"/>
<path d="M96.035 25.913H92.8711V9.68883H95.9399V11.1162C96.4632 10.2122 97.7716 9.42715 99.532 9.42715C102.958 9.42715 104.932 12.0439 104.932 15.5172C104.932 19.0617 102.72 21.6785 99.4131 21.6785C97.7954 21.6785 96.606 21.0362 96.035 20.2512V25.913ZM101.816 15.5409C101.816 13.4713 100.531 12.2581 98.9135 12.2581C97.2959 12.2581 95.9875 13.4713 95.9875 15.5409C95.9875 17.6106 97.2959 18.8476 98.9135 18.8476C100.531 18.8476 101.816 17.6344 101.816 15.5409Z" fill="#6B6B6B"/>
<path d="M91.1213 9.64122V12.829C90.7645 12.7576 90.4552 12.7338 90.1697 12.7338C88.5521 12.7338 87.1485 13.5188 87.1485 16.0405V21.393H83.9846V9.6888H87.0534V11.4254C87.767 9.87911 89.3847 9.59364 90.3838 9.59364C90.6455 9.59364 90.8834 9.61743 91.1213 9.64122Z" fill="#6B6B6B"/>
<path d="M73.6187 14.2088H78.8523C78.8047 13.0431 78.0435 11.9012 76.2355 11.9012C74.5941 11.9012 73.6901 13.1382 73.6187 14.2088ZM79.1616 17.2538L81.8022 18.0388C81.2074 20.0609 79.3519 21.7499 76.4734 21.7499C73.2619 21.7499 70.431 19.4424 70.431 15.4934C70.431 11.7585 73.1905 9.33199 76.1879 9.33199C79.8039 9.33199 81.9687 11.6395 81.9687 15.3982C81.9687 15.8502 81.9211 16.326 81.9211 16.3736H73.5473C73.6187 17.9199 74.9271 19.0379 76.4972 19.0379C77.9721 19.0379 78.7809 18.3005 79.1616 17.2538Z" fill="#6B6B6B"/>
<path d="M66.8604 6.19183V9.68883H69.2155V12.4959H66.8604V17.3965C66.8604 18.4194 67.3362 18.7525 68.2402 18.7525C68.6208 18.7525 69.049 18.7049 69.2155 18.6573V21.2741C68.9301 21.3931 68.3591 21.5596 67.4314 21.5596C65.1476 21.5596 63.7203 20.2036 63.7203 17.9437V12.4959H61.603V9.68883H62.1978C63.4348 9.68883 64.0057 8.88 64.0057 7.83328V6.19183H66.8604Z" fill="#6B6B6B"/>
<path d="M52.7063 14.6607V21.393H49.5424V9.68879H52.6112V11.1399C53.3248 9.92668 54.7284 9.37953 55.9892 9.37953C58.8915 9.37953 60.2237 11.4492 60.2237 14.0184V21.393H57.0597V14.5656C57.0597 13.2572 56.4174 12.2342 54.8949 12.2342C53.5151 12.2342 52.7063 13.3047 52.7063 14.6607Z" fill="#6B6B6B"/>
<path d="M39.1767 14.2088H44.4103C44.3627 13.0431 43.6015 11.9012 41.7935 11.9012C40.152 11.9012 39.2481 13.1382 39.1767 14.2088ZM44.7196 17.2538L47.3601 18.0388C46.7654 20.0609 44.9099 21.7499 42.0314 21.7499C38.8199 21.7499 35.989 19.4424 35.989 15.4934C35.989 11.7585 38.7485 9.33199 41.7459 9.33199C45.3619 9.33199 47.5267 11.6395 47.5267 15.3982C47.5267 15.8502 47.4791 16.326 47.4791 16.3736H39.1053C39.1767 17.9199 40.4851 19.0379 42.0552 19.0379C43.5301 19.0379 44.3389 18.3005 44.7196 17.2538Z" fill="#6B6B6B"/>
<g clip-path="url(#clip1_6010_18889)">
<path fill-rule="evenodd" clip-rule="evenodd" d="M0.915766 18.8569C0.915766 19.5077 1.57489 19.9512 2.17775 19.7062L10.2333 16.4316C10.5788 16.2911 10.8048 15.9553 10.8048 15.5823L10.8048 11.8844C10.8048 11.5114 11.0308 11.1756 11.3763 11.0351L19.4608 7.74874C19.8064 7.60828 20.0323 7.27247 20.0323 6.89948L20.0324 2.56407C20.0324 2.05776 19.6219 1.64732 19.1156 1.64732L11.0601 1.64732C10.5538 1.64732 10.1433 2.05776 10.1433 2.56407L10.1433 9.4134C10.1433 9.91971 9.73288 10.3302 9.22657 10.3302L1.83252 10.3302C1.32621 10.3302 0.915766 10.7406 0.915766 11.2469L0.915766 18.8569Z" fill="#6B6B6B"/>
<path fill-rule="evenodd" clip-rule="evenodd" d="M27.0271 7.92115C27.0271 7.27039 26.368 6.82683 25.7651 7.07189L17.7096 10.3465C17.3641 10.487 17.1381 10.8228 17.1381 11.1958V14.8937C17.1381 15.2667 16.9121 15.6025 16.5666 15.7429L8.48204 19.0293C8.13651 19.1698 7.91052 19.5056 7.91052 19.8786V24.214C7.91052 24.7203 8.32096 25.1307 8.82727 25.1307H16.8828C17.3891 25.1307 17.7995 24.7203 17.7995 24.214V17.3647C17.7995 16.8584 18.21 16.4479 18.7163 16.4479H26.1104C26.6167 16.4479 27.0271 16.0375 27.0271 15.5312V7.92115Z" fill="#6B6B6B"/>
</g>
</g>
<defs>
<clipPath id="clip0_6010_18889">
<rect width="144" height="28" fill="white"/>
</clipPath>
<clipPath id="clip1_6010_18889">
<rect width="27.0931" height="27.0931" fill="white" transform="translate(0.424805 0.577614)"/>
</clipPath>
</defs>
</svg>
