<svg width="114" height="24" viewBox="0 0 114 24" fill="none" xmlns="http://www.w3.org/2000/svg">
<path d="M106.649 19.414C105.472 19.414 104.441 19.1642 103.555 18.6647C102.669 18.1491 101.984 17.432 101.5 16.5135C101.017 15.595 100.775 14.5154 100.775 13.2746C100.775 12.05 101.017 10.9784 101.5 10.0599C101.984 9.12533 102.669 8.40021 103.555 7.88457C104.441 7.35281 105.472 7.08694 106.649 7.08694C107.841 7.08694 108.872 7.35281 109.743 7.88457C110.629 8.41633 111.314 9.14951 111.797 10.0841C112.281 11.0026 112.522 12.058 112.522 13.2505C112.522 13.4277 112.514 13.605 112.498 13.7822C112.498 13.9434 112.482 14.0803 112.45 14.1931H103.362V11.8244H110.057L109.573 12.9604C109.573 11.9614 109.332 11.1476 108.848 10.5192C108.381 9.89074 107.648 9.57652 106.649 9.57652C105.779 9.57652 105.078 9.85046 104.546 10.3983C104.014 10.9301 103.748 11.6471 103.748 12.5495V13.8306C103.748 14.7813 104.014 15.5306 104.546 16.0784C105.094 16.6102 105.835 16.8761 106.77 16.8761C107.591 16.8761 108.236 16.7069 108.703 16.3685C109.171 16.0301 109.573 15.6111 109.912 15.1116L112.111 16.3685C111.58 17.3514 110.854 18.1088 109.936 18.6405C109.034 19.1562 107.938 19.414 106.649 19.414Z" fill="#6B6B6B"/>
<path d="M95.7487 7.35281L96.5464 10.6159V19.1723H93.38V7.35281H95.7487ZM95.8938 12.2353L95.3137 11.9694V9.55235L95.5312 9.28647C95.7085 8.99642 95.9743 8.6822 96.3288 8.34381C96.6995 8.00542 97.1184 7.71538 97.5857 7.47367C98.0691 7.21585 98.5687 7.08694 99.0843 7.08694C99.3421 7.08694 99.5758 7.10305 99.7853 7.13528C99.9947 7.16751 100.156 7.2239 100.269 7.30447V10.1808H99.4952C98.4478 10.1808 97.6421 10.35 97.0781 10.6884C96.5141 11.0107 96.1194 11.5263 95.8938 12.2353Z" fill="#6B6B6B"/>
<path d="M83.9357 19.4624C83.0495 19.4624 82.3405 19.3254 81.8087 19.0515C81.277 18.7775 80.8661 18.415 80.576 17.9638C80.3021 17.4965 80.1168 16.9647 80.0201 16.3685C79.9234 15.7723 79.8751 15.1519 79.8751 14.5074V7.35285H83.0414V14.5316C83.0414 15.2567 83.1945 15.7401 83.5007 15.9818C83.8229 16.2235 84.2016 16.3444 84.6367 16.3444C85.0395 16.3444 85.4424 16.2719 85.8452 16.1268C86.2481 15.9818 86.6268 15.7723 86.9813 15.4984C87.3519 15.2083 87.658 14.878 87.8997 14.5074L88.2865 16.1752H87.513V7.35285H90.6794V19.1723H88.3106L87.658 16.9245L88.6732 16.9486C88.2704 17.4159 87.8111 17.8429 87.2955 18.2297C86.7959 18.6164 86.2561 18.9226 85.676 19.1482C85.112 19.3576 84.532 19.4624 83.9357 19.4624Z" fill="#6B6B6B"/>
<path d="M75.6991 19.3899C74.4906 19.3899 73.5318 19.0757 72.8228 18.4472C72.1299 17.8027 71.7834 16.7794 71.7834 15.3775V7.49789L71.7351 7.35286L72.3877 4.57323H74.9498V14.87C74.9498 15.3856 75.0707 15.7643 75.3124 16.006C75.5702 16.2316 75.8925 16.3444 76.2792 16.3444C76.537 16.3444 76.7707 16.3283 76.9802 16.296C77.1896 16.2477 77.3749 16.1993 77.5361 16.151V19.0998C77.2783 19.1965 77.0043 19.269 76.7143 19.3174C76.4242 19.3657 76.0858 19.3899 75.6991 19.3899ZM69.9465 10.2775V7.35286H77.5361V10.2775H69.9465Z" fill="#6B6B6B"/>
<path d="M64.537 7.08694C65.3427 7.08694 65.9872 7.2239 66.4706 7.49784C66.9702 7.77177 67.3408 8.14239 67.5825 8.60969C67.8403 9.07699 68.0095 9.60875 68.0901 10.205C68.1706 10.7851 68.2109 11.3893 68.2109 12.0178V19.1723H65.0446V11.9936C65.0446 11.2685 64.8995 10.7851 64.6095 10.5434C64.3356 10.3016 63.9811 10.1808 63.546 10.1808C63.1431 10.1808 62.7322 10.2614 62.3133 10.4225C61.8943 10.5675 61.4995 10.7851 61.1289 11.0751C60.7744 11.349 60.4682 11.6633 60.2104 12.0178L59.7995 10.3742H60.5972V19.1723H57.4308V7.35281H59.7995L60.4521 9.62486L59.437 9.57652C59.8559 9.09311 60.3313 8.66609 60.863 8.29547C61.4109 7.92486 61.991 7.63481 62.6033 7.42533C63.2156 7.19973 63.8602 7.08694 64.537 7.08694Z" fill="#6B6B6B"/>
<path d="M49.6209 19.414C48.4446 19.414 47.4133 19.1642 46.5271 18.6647C45.6408 18.1491 44.956 17.432 44.4726 16.5135C43.9891 15.595 43.7474 14.5154 43.7474 13.2746C43.7474 12.05 43.9891 10.9784 44.4726 10.0599C44.956 9.12533 45.6408 8.40021 46.5271 7.88457C47.4133 7.35281 48.4446 7.08694 49.6209 7.08694C50.8133 7.08694 51.8446 7.35281 52.7148 7.88457C53.601 8.41633 54.2859 9.14951 54.7693 10.0841C55.2527 11.0026 55.4944 12.058 55.4944 13.2505C55.4944 13.4277 55.4864 13.605 55.4702 13.7822C55.4702 13.9434 55.4541 14.0803 55.4219 14.1931H46.3337V11.8244H53.029L52.5456 12.9604C52.5456 11.9614 52.3039 11.1476 51.8205 10.5192C51.3532 9.89074 50.62 9.57652 49.6209 9.57652C48.7508 9.57652 48.0498 9.85046 47.5181 10.3983C46.9863 10.9301 46.7204 11.6471 46.7204 12.5495V13.8306C46.7204 14.7813 46.9863 15.5306 47.5181 16.0784C48.0659 16.6102 48.8072 16.8761 49.7418 16.8761C50.5636 16.8761 51.2081 16.7069 51.6754 16.3685C52.1427 16.0301 52.5456 15.6111 52.884 15.1116L55.0835 16.3685C54.5518 17.3514 53.8266 18.1088 52.9081 18.6405C52.0058 19.1562 50.91 19.414 49.6209 19.414Z" fill="#6B6B6B"/>
<path d="M43.2628 7.35285L38.9363 19.1723H35.8908L31.3467 7.35285H34.6822L37.7761 16.3927H37.0268L39.9998 7.35285H43.2628Z" fill="#6B6B6B"/>
<path fill-rule="evenodd" clip-rule="evenodd" d="M8.601 0.377258C8.18909 0.377258 7.85517 0.711179 7.85517 1.12309V8.20851C3.53009 8.20852 0.0239258 11.7147 0.0239258 16.0398C0.0239258 20.3648 3.5301 23.871 7.85518 23.871H14.9406C15.3525 23.871 15.6864 23.5371 15.6864 23.1252V16.0398C20.0115 16.0398 23.5177 12.5336 23.5177 8.20851C23.5177 3.88343 20.0115 0.377258 15.6864 0.377258H8.601ZM15.6864 16.0398V8.95435C15.6864 8.54243 15.3525 8.20851 14.9406 8.20851H7.85518C7.85518 8.20851 7.85517 8.20851 7.85517 8.20851V15.2939C7.85517 15.7058 8.18909 16.0398 8.601 16.0398H15.6864C15.6864 16.0398 15.6864 16.0398 15.6864 16.0398Z" fill="#6B6B6B"/>
<path d="M8.51702 0.377258C8.15152 0.377258 7.85522 0.673554 7.85522 1.03905V8.20851H15.0247C15.3902 8.20851 15.6865 8.50481 15.6865 8.87031L15.6865 16.0398C20.0116 16.0398 23.5177 12.5336 23.5177 8.20851C23.5177 3.88343 20.0116 0.377258 15.6865 0.377258H8.51702Z" fill="#6B6B6B"/>
</svg>
