<svg width="190" height="50" viewBox="0 0 190 50" fill="none" xmlns="http://www.w3.org/2000/svg">
<mask id="mask0_5739_25665" style="mask-type:alpha" maskUnits="userSpaceOnUse" x="1" y="0" width="50" height="50">
<circle cx="26.0094" cy="25.0331" r="24.7196" fill="#1F1F1F" stroke="#1F1F1F" stroke-width="0.38325"/>
</mask>
<g mask="url(#mask0_5739_25665)">
<path d="M49.4835 25.0331C49.4835 37.9975 38.9738 48.5072 26.0094 48.5072C13.045 48.5072 2.53533 37.9975 2.53533 25.0331C2.53533 12.0688 13.045 1.55907 26.0094 1.55907C38.9738 1.55907 49.4835 12.0688 49.4835 25.0331ZM26.0094 50.136C39.8733 50.136 51.1123 38.8971 51.1123 25.0331C51.1123 11.1692 39.8733 -0.0697378 26.0094 -0.0697378C12.1455 -0.0697378 0.906519 11.1692 0.906519 25.0331C0.906519 38.8971 12.1455 50.136 26.0094 50.136Z" fill="white" stroke="white" stroke-width="0.38325"/>
<path d="M44.1961 5.69544V23.4889C44.1961 33.5329 36.0539 41.6751 26.01 41.6751C15.9661 41.6751 7.82389 33.5329 7.82389 23.4889V5.69544C7.82389 -4.34848 15.9661 -12.4907 26.01 -12.4907C36.0539 -12.4907 44.1961 -4.34848 44.1961 5.69544ZM26.01 -14.2933C14.9705 -14.2933 6.02127 -5.34404 6.02127 5.69544V23.4889C6.02127 34.5284 14.9705 43.4777 26.01 43.4777C37.0495 43.4777 45.9988 34.5284 45.9988 23.4889V5.69544C45.9988 -5.34404 37.0495 -14.2933 26.01 -14.2933Z" fill="white" stroke="white" stroke-width="0.38325"/>
<path d="M39.2616 -7.57261V20.7415C39.2616 28.0601 33.3287 33.993 26.01 33.993C18.6914 33.993 12.7585 28.0601 12.7585 20.7415V-7.57261C12.7585 -14.8912 18.6914 -20.8242 26.01 -20.8242C33.3287 -20.8242 39.2616 -14.8912 39.2616 -7.57261ZM26.01 -22.6268C17.6958 -22.6268 10.9558 -15.8868 10.9558 -7.57261V20.7415C10.9558 29.0557 17.6958 35.7957 26.01 35.7957C34.3242 35.7957 41.0642 29.0557 41.0642 20.7415V-7.57261C41.0642 -15.8868 34.3242 -22.6268 26.01 -22.6268Z" fill="white" stroke="white" stroke-width="0.38325"/>
<path d="M34.4352 -20.1652V16.6984C34.4352 21.3522 30.6625 25.1249 26.0087 25.1249C21.3549 25.1249 17.5822 21.3522 17.5822 16.6984V-20.1652C17.5822 -24.8191 21.3549 -28.5918 26.0087 -28.5918C30.6625 -28.5918 34.4352 -24.8191 34.4352 -20.1652ZM26.0087 -30.3944C20.3593 -30.3944 15.7796 -25.8146 15.7796 -20.1652V16.6984C15.7796 22.3478 20.3593 26.9275 26.0087 26.9275C31.6581 26.9275 36.2379 22.3478 36.2379 16.6984V-20.1652C36.2379 -25.8146 31.6581 -30.3944 26.0087 -30.3944Z" fill="white" stroke="white" stroke-width="0.38325"/>
</g>
<path d="M66.0703 20.5273C66.0703 26.2553 79.2543 21.7433 79.2543 30.6393C79.2543 34.9273 75.7663 37.3273 70.9983 37.3273C66.1663 37.3273 62.8383 35.1193 61.9423 30.5753H65.6863C66.2943 33.0393 68.1183 34.3833 71.0303 34.3833C74.0063 34.3833 75.5743 33.0713 75.5743 31.1193C75.5743 24.9753 62.3903 29.5513 62.3903 20.8153C62.3903 17.5513 65.1423 14.7353 70.1023 14.7353C74.3903 14.7353 77.9103 16.7833 78.6783 21.5513H74.8703C74.2623 18.8633 72.5663 17.6793 70.0063 17.6793C67.5103 17.6793 66.0703 18.7993 66.0703 20.5273ZM82.9128 31.8233V22.5113H80.6088V19.8553H82.9128V15.9193H86.3368V19.8553H90.0168V22.5113H86.3368V31.6313C86.3368 33.5833 86.8808 34.5113 89.2808 34.5113H89.9528V37.0073C89.5688 37.1993 88.7688 37.3273 87.8088 37.3273C84.4808 37.3273 82.9128 35.5033 82.9128 31.8233ZM95.8218 25.4233H92.3978C92.9418 21.6473 95.5338 19.4073 99.7898 19.4073C104.43 19.4073 106.734 22.1273 106.734 26.0953V32.7513C106.734 34.7993 106.926 35.9833 107.31 36.9113H103.726C103.47 36.2713 103.374 35.3753 103.342 34.4153C101.902 36.4313 99.6938 37.3273 97.6458 37.3273C94.1898 37.3273 91.8218 35.6953 91.8218 32.4313C91.8218 30.0953 93.1018 28.3673 95.6618 27.5033C97.9338 26.7353 100.238 26.5433 103.31 26.5113V26.1273C103.31 23.6313 102.158 22.2873 99.5338 22.2873C97.3258 22.2873 96.1418 23.5033 95.8218 25.4233ZM95.2778 32.3033C95.2778 33.7433 96.4618 34.6393 98.2858 34.6393C101.134 34.6393 103.31 32.3673 103.31 29.6153V28.8473C96.7498 28.9113 95.2778 30.3513 95.2778 32.3033ZM111.027 36.9113V19.8553H114.451V22.3833C115.571 20.3353 117.331 19.4073 119.315 19.4073C119.987 19.4073 120.627 19.5673 120.947 19.8553V22.8633C120.435 22.7033 119.827 22.6393 119.123 22.6393C115.859 22.6393 114.451 24.6233 114.451 27.5993V36.9113H111.027ZM123.725 31.8233V22.5113H121.421V19.8553H123.725V15.9193H127.149V19.8553H130.829V22.5113H127.149V31.6313C127.149 33.5833 127.693 34.5113 130.093 34.5113H130.765V37.0073C130.381 37.1993 129.581 37.3273 128.621 37.3273C125.293 37.3273 123.725 35.5033 123.725 31.8233ZM148.538 31.3433C147.61 35.3113 144.666 37.3273 140.666 37.3273C135.642 37.3273 132.57 33.9673 132.57 28.3993C132.57 22.6073 135.642 19.4073 140.506 19.4073C145.434 19.4073 148.41 22.7353 148.41 28.2073V29.0393H136.058C136.25 32.5273 137.882 34.4793 140.666 34.4793C142.842 34.4793 144.378 33.4553 144.954 31.3433H148.538ZM140.506 22.2553C138.042 22.2553 136.57 23.8233 136.154 26.7033H144.858C144.442 23.8233 142.938 22.2553 140.506 22.2553ZM151.84 36.9113V19.8553H155.264V22.3833C156.384 20.3353 158.144 19.4073 160.128 19.4073C160.8 19.4073 161.44 19.5673 161.76 19.8553V22.8633C161.248 22.7033 160.64 22.6393 159.936 22.6393C156.672 22.6393 155.264 24.6233 155.264 27.5993V36.9113H151.84ZM184.451 36.9113L179.491 29.9353L178.595 28.4953L177.667 29.9353L172.739 36.9113H168.931L176.707 25.6793L169.475 15.1513H173.635L177.987 21.1993L178.979 22.8313L179.971 21.1993L184.227 15.1513H188.035L180.835 25.6153L188.611 36.9113H184.451Z" fill="white"/>
</svg>
